<svg width="12" height="14" viewBox="0 0 12 14" fill="none" xmlns="http://www.w3.org/2000/svg">
<path d="M11.5 13.54H2C1.60218 13.54 1.22064 13.382 0.93934 13.1007C0.658035 12.8194 0.5 12.4378 0.5 12.04C0.5 11.6422 0.658035 11.2606 0.93934 10.9793C1.22064 10.698 1.60218 10.54 2 10.54H10.5C10.7652 10.54 11.0196 10.4346 11.2071 10.2471C11.3946 10.0596 11.5 9.80522 11.5 9.54V1.54C11.5 1.27478 11.3946 1.02043 11.2071 0.832893C11.0196 0.645357 10.7652 0.54 10.5 0.54H2C1.60901 0.539861 1.23342 0.692394 0.953235 0.965105C0.673053 1.23782 0.510426 1.60915 0.5 2V12" stroke="#787A7C" stroke-linecap="round" stroke-linejoin="round"/>
<path d="M10.5 10.54V13.54" stroke="#787A7C" stroke-linecap="round" stroke-linejoin="round"/>
</svg>
