<svg width="14" height="14" viewBox="0 0 14 14" fill="none" xmlns="http://www.w3.org/2000/svg">
<path d="M7 13.5C5.53524 11.8874 3.5488 10.8428 1.39 10.55C1.14428 10.5228 0.917346 10.4056 0.752988 10.2209C0.58863 10.0362 0.498503 9.79722 0.500003 9.55V1.5C0.499994 1.35556 0.531275 1.21283 0.591694 1.08163C0.652114 0.950437 0.740238 0.833887 0.850003 0.74C0.957835 0.647821 1.08405 0.57964 1.22025 0.539985C1.35646 0.50033 1.49954 0.490109 1.64 0.51C3.70429 0.852607 5.59272 1.88138 7 3.43V13.5Z" stroke="#787A7C" stroke-linecap="round" stroke-linejoin="round"/>
<path d="M7 13.5C8.46476 11.8874 10.4512 10.8428 12.61 10.55C12.8557 10.5228 13.0827 10.4056 13.247 10.2209C13.4114 10.0362 13.5015 9.79722 13.5 9.55V1.5C13.5 1.35556 13.4687 1.21283 13.4083 1.08163C13.3479 0.950437 13.2598 0.833887 13.15 0.74C13.0422 0.647821 12.916 0.57964 12.7798 0.539985C12.6435 0.50033 12.5005 0.490109 12.36 0.51C10.2957 0.852607 8.40728 1.88138 7 3.43V13.5Z" stroke="#787A7C" stroke-linecap="round" stroke-linejoin="round"/>
</svg>
