<svg width="14" height="14" viewBox="0 0 14 14" fill="none" xmlns="http://www.w3.org/2000/svg">
<g filter="url(#filter0_d_7_13)">
<path d="M7.49 1.09L9.08 4.3C9.11617 4.38147 9.17305 4.45205 9.24499 4.50469C9.31693 4.55732 9.40141 4.59019 9.49 4.6L13 5.12C13.1016 5.13306 13.1974 5.17477 13.2763 5.24026C13.3551 5.30574 13.4136 5.39229 13.4451 5.48981C13.4765 5.58733 13.4796 5.69179 13.4539 5.79098C13.4282 5.89017 13.3748 5.98001 13.3 6.05L10.77 8.56C10.7054 8.62033 10.657 8.69584 10.629 8.77967C10.6011 8.86351 10.5945 8.953 10.61 9.04L11.22 12.57C11.2377 12.6714 11.2265 12.7758 11.1878 12.8712C11.1491 12.9666 11.0843 13.0492 11.001 13.1096C10.9176 13.1701 10.819 13.2059 10.7163 13.213C10.6136 13.2202 10.5109 13.1983 10.42 13.15L7.26 11.48C7.17909 11.4403 7.09014 11.4196 7 11.4196C6.90986 11.4196 6.82092 11.4403 6.74 11.48L3.58 13.15C3.48909 13.1983 3.38644 13.2202 3.28373 13.213C3.18102 13.2059 3.08237 13.1701 2.99902 13.1096C2.91566 13.0492 2.85094 12.9666 2.81222 12.8712C2.7735 12.7758 2.76234 12.6714 2.78 12.57L3.39 9C3.40546 8.913 3.39892 8.82351 3.37098 8.73967C3.34303 8.65584 3.29457 8.58033 3.23 8.52L0.670003 6.05C0.594265 5.9781 0.541002 5.88577 0.516667 5.78421C0.492331 5.68266 0.497966 5.57622 0.53289 5.4778C0.567813 5.37938 0.630527 5.29319 0.713433 5.22969C0.79634 5.16619 0.895882 5.12808 1 5.12L4.51 4.6C4.5986 4.59019 4.68308 4.55732 4.75502 4.50469C4.82695 4.45205 4.88384 4.38147 4.92 4.3L6.51 1.09C6.5533 0.996509 6.62244 0.917356 6.70927 0.861884C6.79609 0.806412 6.89697 0.776936 7 0.776936C7.10303 0.776936 7.20392 0.806412 7.29074 0.861884C7.37756 0.917356 7.4467 0.996509 7.49 1.09V1.09Z" stroke="#CA8A04" stroke-linecap="round" stroke-linejoin="round" shape-rendering="crispEdges"/>
</g>
<defs>
<filter id="filter0_d_7_13" x="-3.9982" y="0.276936" width="21.9694" height="21.4374" filterUnits="userSpaceOnUse" color-interpolation-filters="sRGB">
<feFlood flood-opacity="0" result="BackgroundImageFix"/>
<feColorMatrix in="SourceAlpha" type="matrix" values="0 0 0 0 0 0 0 0 0 0 0 0 0 0 0 0 0 0 127 0" result="hardAlpha"/>
<feOffset dy="4"/>
<feGaussianBlur stdDeviation="2"/>
<feComposite in2="hardAlpha" operator="out"/>
<feColorMatrix type="matrix" values="0 0 0 0 0 0 0 0 0 0 0 0 0 0 0 0 0 0 0.25 0"/>
<feBlend mode="normal" in2="BackgroundImageFix" result="effect1_dropShadow_7_13"/>
<feBlend mode="normal" in="SourceGraphic" in2="effect1_dropShadow_7_13" result="shape"/>
</filter>
</defs>
</svg>
