<svg width="12" height="14" viewBox="0 0 12 14" fill="none" xmlns="http://www.w3.org/2000/svg">
<path d="M5.15 0.53C5.08954 0.493884 5.02043 0.474813 4.95 0.474813C4.87957 0.474813 4.81046 0.493884 4.75 0.53C4.70013 0.569514 4.66648 0.625944 4.65542 0.688604C4.64436 0.751263 4.65667 0.815803 4.69 0.87C5.92 3 6.18 5.9 4.5 7.5C3.85363 6.95682 3.34047 6.27261 3 5.5C2.37873 5.84505 1.86385 6.3537 1.51127 6.97072C1.15868 7.58775 0.981861 8.28957 1 9C1.02536 9.62628 1.17574 10.2412 1.44227 10.8085C1.70881 11.3758 2.08613 11.884 2.55202 12.3033C3.01791 12.7226 3.56296 13.0445 4.15511 13.25C4.74725 13.4555 5.37452 13.5405 6 13.5C9.22 13.5 10.89 11.5 11 9C11.13 6 9 2.31 5.15 0.53Z" stroke="#A65A17" stroke-linecap="round" stroke-linejoin="round"/>
<path d="M8.5 9C8.5 9.53043 8.28929 10.0391 7.91421 10.4142C7.53914 10.7893 7.03043 11 6.5 11" stroke="#A65A17" stroke-linecap="round" stroke-linejoin="round"/>
</svg>
