<svg width="132" height="31" viewBox="0 0 132 31" fill="none" xmlns="http://www.w3.org/2000/svg">
<path d="M19.2838 12.6969L13.333 11.8321L10.6728 6.43911C10.6002 6.29145 10.4807 6.17192 10.333 6.09926C9.96269 5.91645 9.51269 6.0688 9.32753 6.43911L6.66737 11.8321L0.716593 12.6969C0.552531 12.7204 0.402531 12.7977 0.287687 12.9149C0.148847 13.0576 0.0723402 13.2496 0.0749771 13.4487C0.0776139 13.6477 0.159179 13.8376 0.301749 13.9766L4.60722 18.1743L3.59003 24.1016C3.56618 24.2395 3.58144 24.3813 3.63407 24.511C3.68671 24.6406 3.77463 24.7529 3.88785 24.8351C4.00107 24.9174 4.13506 24.9662 4.27464 24.9762C4.41422 24.9861 4.55379 24.9568 4.67753 24.8915L10.0002 22.093L15.3228 24.8915C15.4682 24.9688 15.6369 24.9946 15.7986 24.9665C16.2064 24.8961 16.4807 24.5094 16.4103 24.1016L15.3932 18.1743L19.6986 13.9766C19.8158 13.8618 19.8932 13.7118 19.9166 13.5477C19.9799 13.1375 19.6939 12.7579 19.2838 12.6969V12.6969Z" fill="#FADB14"/>
<path d="M47.2838 12.6969L41.333 11.8321L38.6728 6.43911C38.6002 6.29145 38.4807 6.17192 38.333 6.09926C37.9627 5.91645 37.5127 6.0688 37.3275 6.43911L34.6674 11.8321L28.7166 12.6969C28.5525 12.7204 28.4025 12.7977 28.2877 12.9149C28.1488 13.0576 28.0723 13.2496 28.075 13.4487C28.0776 13.6477 28.1592 13.8376 28.3017 13.9766L32.6072 18.1743L31.59 24.1016C31.5662 24.2395 31.5814 24.3813 31.6341 24.511C31.6867 24.6406 31.7746 24.7529 31.8878 24.8351C32.0011 24.9174 32.1351 24.9662 32.2746 24.9762C32.4142 24.9861 32.5538 24.9568 32.6775 24.8915L38.0002 22.093L43.3228 24.8915C43.4682 24.9688 43.6369 24.9946 43.7986 24.9665C44.2064 24.8961 44.4807 24.5094 44.4103 24.1016L43.3932 18.1743L47.6986 13.9766C47.8158 13.8618 47.8932 13.7118 47.9166 13.5477C47.9799 13.1375 47.6939 12.7579 47.2838 12.6969V12.6969Z" fill="#FADB14"/>
<path d="M75.2836 12.697L69.3328 11.8321L66.6726 6.43915C66.6 6.29149 66.4805 6.17196 66.3328 6.0993C65.9625 5.91649 65.5125 6.06883 65.3273 6.43915L62.6672 11.8321L56.7164 12.697C56.5523 12.7204 56.4023 12.7977 56.2875 12.9149C56.1487 13.0576 56.0721 13.2496 56.0748 13.4487C56.0774 13.6478 56.159 13.8377 56.3016 13.9766L60.607 18.1743L59.5898 24.1016C59.566 24.2395 59.5812 24.3813 59.6339 24.511C59.6865 24.6406 59.7744 24.753 59.8877 24.8352C60.0009 24.9174 60.1349 24.9663 60.2744 24.9762C60.414 24.9862 60.5536 24.9568 60.6773 24.8915L66 22.0931L71.3226 24.8915C71.468 24.9688 71.6367 24.9946 71.7984 24.9665C72.2062 24.8962 72.4805 24.5095 72.4101 24.1016L71.393 18.1743L75.6984 13.9766C75.8156 13.8618 75.893 13.7118 75.9164 13.5477C75.9797 13.1376 75.6937 12.7579 75.2836 12.697V12.697Z" fill="#F0F0F0"/>
<path d="M103.284 12.697L97.3328 11.8321L94.6726 6.43915C94.6 6.29149 94.4805 6.17196 94.3328 6.0993C93.9625 5.91649 93.5125 6.06883 93.3273 6.43915L90.6672 11.8321L84.7164 12.697C84.5523 12.7204 84.4023 12.7977 84.2875 12.9149C84.1487 13.0576 84.0721 13.2496 84.0748 13.4487C84.0774 13.6478 84.159 13.8377 84.3016 13.9766L88.607 18.1743L87.5898 24.1016C87.566 24.2395 87.5812 24.3813 87.6339 24.511C87.6865 24.6406 87.7744 24.753 87.8877 24.8352C88.0009 24.9174 88.1349 24.9663 88.2744 24.9762C88.414 24.9862 88.5536 24.9568 88.6773 24.8915L94 22.0931L99.3226 24.8915C99.468 24.9688 99.6367 24.9946 99.7984 24.9665C100.206 24.8962 100.48 24.5095 100.41 24.1016L99.393 18.1743L103.698 13.9766C103.816 13.8618 103.893 13.7118 103.916 13.5477C103.98 13.1376 103.694 12.7579 103.284 12.697V12.697Z" fill="#F0F0F0"/>
<path d="M131.284 12.697L125.333 11.8321L122.673 6.43915C122.6 6.29149 122.48 6.17196 122.333 6.0993C121.962 5.91649 121.512 6.06883 121.327 6.43915L118.667 11.8321L112.716 12.697C112.552 12.7204 112.402 12.7977 112.287 12.9149C112.149 13.0576 112.072 13.2496 112.075 13.4487C112.077 13.6478 112.159 13.8377 112.302 13.9766L116.607 18.1743L115.59 24.1016C115.566 24.2395 115.581 24.3813 115.634 24.511C115.687 24.6406 115.774 24.753 115.888 24.8352C116.001 24.9174 116.135 24.9663 116.274 24.9762C116.414 24.9862 116.554 24.9568 116.677 24.8915L122 22.0931L127.323 24.8915C127.468 24.9688 127.637 24.9946 127.798 24.9665C128.206 24.8962 128.48 24.5095 128.41 24.1016L127.393 18.1743L131.698 13.9766C131.816 13.8618 131.893 13.7118 131.916 13.5477C131.98 13.1376 131.694 12.7579 131.284 12.697V12.697Z" fill="#F0F0F0"/>
</svg>
